<svg width="270" height="78" viewBox="0 0 270 78" fill="none" xmlns="http://www.w3.org/2000/svg">
<path fill-rule="evenodd" clip-rule="evenodd" d="M114.44 0.0705424C115.356 0.117581 115.751 0.205301 116.413 0.506601C116.868 0.713824 117.526 1.09649 117.877 1.35838C118.266 1.64951 118.792 2.24956 119.232 2.90683C119.815 3.77894 119.992 4.17305 120.173 4.99813C120.328 5.7126 120.371 6.2796 120.316 6.90509C120.274 7.39454 120.132 8.10901 120 8.49422C119.867 8.87943 119.641 9.42227 119.496 9.70196C119.35 9.98165 118.841 10.5881 118.364 11.0495C117.885 11.511 117.18 12.059 116.795 12.2675C116.41 12.4772 115.723 12.7239 115.267 12.8167C114.738 12.9235 114.028 12.959 113.294 12.912C112.561 12.8662 111.897 12.7391 111.449 12.5611C111.064 12.4073 110.52 12.1251 110.24 11.9318C109.96 11.7399 109.451 11.3025 109.109 10.9593C108.767 10.6173 108.355 10.1088 108.192 9.82909C108.029 9.54941 107.775 8.97732 107.63 8.55779C107.484 8.13825 107.333 7.36657 107.294 6.84152C107.24 6.11306 107.282 5.67828 107.473 4.99813C107.61 4.50867 107.851 3.85141 108.008 3.53612C108.166 3.22211 108.511 2.66782 108.775 2.30677C109.038 1.94572 109.563 1.44482 109.938 1.19438C110.313 0.94393 110.937 0.618476 111.322 0.471004C111.706 0.322261 112.308 0.158263 112.658 0.106139C113.008 0.0540154 113.81 0.0387598 114.44 0.0705424V0.0705424ZM153.388 0.000620562C153.598 -0.00573597 154.141 0.0374885 154.597 0.0959686C155.053 0.154449 155.539 0.231998 155.679 0.268866C155.819 0.304463 156.3 0.524399 156.749 0.758319C157.264 1.02657 157.852 1.48932 158.342 2.01056C158.769 2.46568 159.254 3.12295 159.421 3.47256C159.588 3.82217 159.802 4.39426 159.896 4.74387C159.99 5.09348 160.068 5.86516 160.068 6.46013C160.068 7.0551 159.991 7.82678 159.9 8.17639C159.808 8.526 159.551 9.1553 159.329 9.57483C159.108 9.99436 158.598 10.6745 158.194 11.0851C157.662 11.628 157.164 11.9751 156.379 12.3501C155.399 12.8192 155.183 12.8726 154.088 12.9209C153.217 12.9603 152.647 12.9146 152.051 12.7607C151.596 12.6425 150.91 12.3959 150.524 12.2128C150.138 12.0297 149.506 11.5619 149.118 11.1729C148.729 10.7838 148.19 10.0923 147.919 9.6384C147.56 9.03453 147.379 8.53745 147.248 7.795C147.142 7.18859 147.099 6.41818 147.142 5.88804C147.182 5.39859 147.332 4.65487 147.476 4.23534C147.621 3.81581 147.992 3.11532 148.304 2.67799C148.615 2.24066 149.17 1.6584 149.538 1.38253C149.905 1.10666 150.55 0.725265 150.97 0.533298C151.39 0.342602 152.02 0.146821 152.37 0.0985112C152.72 0.0514728 153.178 0.0069771 153.388 0.000620562ZM137.796 2.90047L138.057 3.25008C138.201 3.44205 138.416 3.90099 138.534 4.26967C138.687 4.74259 138.816 4.93838 138.973 4.9371C139.182 4.93456 139.196 5.29307 139.188 10.7508C139.183 14.3104 139.129 16.8137 139.047 17.2027C138.958 17.6209 138.88 24.6881 138.819 37.925C138.735 56.1504 138.707 58.0676 138.516 58.6155C138.348 59.096 138.247 59.2194 138.019 59.2181C137.828 59.2172 137.652 59.355 137.491 59.6313C137.308 59.9453 137.269 60.1767 137.414 61.1263L128.314 61.0628L128.293 32.1469C128.283 16.2428 128.296 3.15728 128.322 3.06574C128.361 2.93353 129.325 2.90047 137.796 2.90047V2.90047ZM20.952 17.8599C21.3364 17.8828 22.3534 17.9591 23.2113 18.029C24.0692 18.0989 25.0429 18.221 25.3751 18.3011C25.7073 18.3799 26.4951 18.5859 27.1252 18.7575C27.7552 18.9291 28.7289 19.2762 29.2889 19.5292C29.849 19.7822 30.7005 20.2208 31.1816 20.503C31.6627 20.7852 32.4646 21.3649 32.9635 21.7908C33.4625 22.2167 34.1142 22.874 34.412 23.2528C34.7086 23.6317 35.0331 24.055 35.1337 24.1949C35.233 24.3347 35.3475 24.4199 35.3883 24.3856C35.429 24.3512 35.5219 23.4639 35.5944 22.415C35.667 21.3662 35.7663 20.0784 35.9076 18.6011L46.5355 18.5375V59.2194H46.1855C45.8889 59.2194 45.7922 59.3147 45.5491 59.855C45.3747 60.2415 45.1138 60.5771 44.8821 60.7131C44.6721 60.8352 44.5003 61.0068 44.5003 61.0945C44.499 61.2179 43.7137 61.2534 40.9988 61.2534C38.6123 61.2534 37.4069 61.2064 37.2122 61.1073C36.9958 60.9966 36.9182 60.9966 36.894 61.1073C36.8736 61.2013 36.7247 61.1619 36.4803 60.9992C36.2703 60.8593 36.0552 60.7449 36.003 60.7462C35.9508 60.7462 35.8363 60.1309 35.7485 59.3795C35.6619 58.6269 35.5843 57.6684 35.5779 57.2488C35.5728 56.8293 35.5295 56.2 35.3984 55.216L34.6869 56.2331C34.2949 56.7912 33.6369 57.5565 33.2232 57.9341C32.8095 58.3104 32.2419 58.7757 31.9618 58.9664C31.6818 59.1583 30.894 59.6084 30.2117 59.9669C29.5295 60.3241 28.8562 60.6178 28.7162 60.6178C28.5762 60.6178 28.0747 60.7589 27.6025 60.9305C27.1303 61.1034 26.3424 61.3056 25.8524 61.3806C25.3623 61.4543 24.3594 61.5764 23.6249 61.6501C22.8905 61.7238 21.0857 61.7607 19.6156 61.7327C17.0649 61.6831 16.8752 61.6615 15.479 61.2674C14.6745 61.0399 13.6716 60.7335 13.2515 60.5873C12.8315 60.4398 12.0016 60.0622 11.406 59.7482C10.8103 59.4342 9.75132 58.8011 9.05127 58.3422C8.21758 57.7968 7.29479 57.0238 6.3771 56.1072C5.45049 55.1817 4.65626 54.2308 4.03767 53.3078C3.52218 52.5386 2.82468 51.3373 2.48612 50.638C2.14882 49.9388 1.74916 49.0235 1.59897 48.6039C1.44878 48.1844 1.24258 47.5551 1.13948 47.2055C1.03639 46.8559 0.846738 46.1694 0.716912 45.6799C0.588358 45.1905 0.405073 44.3044 0.312158 43.7094C0.20906 43.0534 0.141602 41.5546 0.141602 39.8955C0.141602 38.3928 0.182331 36.8761 0.231971 36.5265C0.281611 36.1769 0.387254 35.5756 0.467441 35.1917C0.546355 34.8077 0.658362 34.2636 0.715639 33.9839C0.772915 33.7042 0.91547 33.1601 1.03511 32.7762C1.15349 32.3922 1.39532 31.6765 1.57351 31.187C1.75043 30.6976 2.20864 29.6678 2.59176 28.8987C2.97488 28.1296 3.39618 27.3426 3.52855 27.1506C3.66092 26.9587 3.76911 26.7718 3.76911 26.7375C3.76911 26.7031 3.97403 26.3739 4.2235 26.0065C4.47297 25.6391 5.26084 24.7453 5.97362 24.0194C6.68639 23.2948 7.58372 22.4354 7.96938 22.1112C8.35504 21.7857 9.15564 21.2251 9.75132 20.864C10.347 20.503 11.3347 19.9741 11.9469 19.6906C12.5591 19.4058 13.5621 19.0079 14.1743 18.8058C14.7866 18.6037 15.689 18.3456 16.179 18.2337C16.669 18.1206 17.7853 17.9807 18.661 17.9222C19.5354 17.865 20.5677 17.8358 20.952 17.8599ZM20.0611 27.71C19.4654 27.8511 18.521 28.1842 17.9609 28.4499C17.4009 28.7156 16.4985 29.2826 15.9563 29.7098C15.414 30.1382 14.5931 30.9315 14.1311 31.4731C13.6703 32.0147 13.0848 32.8308 12.8315 33.2847C12.577 33.7386 12.2142 34.5115 12.0246 35.001C11.8336 35.4904 11.6465 36.0625 11.6071 36.2723C11.5663 36.482 11.5052 36.7401 11.4709 36.8444C11.4352 36.9486 11.3563 37.5499 11.2965 38.1792C11.2227 38.9496 11.2405 39.926 11.3512 41.1668C11.4416 42.1813 11.5434 43.1246 11.5765 43.2645C11.6096 43.4043 11.7776 43.8912 11.952 44.3451C12.1251 44.7989 12.4662 45.5998 12.7081 46.1249C12.9512 46.6487 13.4297 47.4204 13.7734 47.8386C14.1158 48.2569 14.5396 48.7451 14.7153 48.923C14.8896 49.101 15.4344 49.5536 15.9244 49.9274C16.4145 50.3011 17.3016 50.8503 17.8973 51.1478C18.493 51.4453 19.4081 51.8064 19.9338 51.9513C20.4582 52.0962 21.4612 52.2844 22.1612 52.3708C23.2736 52.5094 23.6262 52.5005 24.9614 52.3009C25.8014 52.1763 26.8897 51.9297 27.3797 51.7555C27.8698 51.5801 28.5864 51.261 28.9707 51.0461C29.3551 50.83 29.9572 50.4435 30.3072 50.1855C30.6572 49.9286 31.202 49.4672 31.5164 49.1608C31.832 48.8544 32.2355 48.4323 32.4124 48.2226C32.5893 48.0128 32.9126 47.5844 33.1316 47.2691C33.3492 46.9538 33.7603 46.2113 34.0442 45.6164C34.3267 45.0214 34.7175 43.9637 34.9097 43.2645C35.2291 42.1038 35.2597 41.8037 35.2572 39.8319C35.2533 37.9021 35.2164 37.5347 34.9148 36.3994C34.7188 35.6659 34.2695 34.5102 33.8507 33.6661C33.1736 32.2982 33.0348 32.1151 31.7162 30.8235C30.8214 29.9475 30.0055 29.2763 29.4799 28.9851C29.0255 28.7334 28.2223 28.3597 27.6979 28.1575C27.1723 27.9541 26.2138 27.6808 25.566 27.5486C24.7985 27.3922 23.9126 27.3146 23.0204 27.3248C22.2681 27.3324 21.5375 27.3642 21.3975 27.396C21.2575 27.4265 20.6567 27.5676 20.0611 27.71V27.71ZM73.71 17.9171C74.6901 17.9082 75.9794 17.9604 76.5738 18.0328C77.1682 18.1053 78.1992 18.2795 78.8649 18.4206C79.5306 18.5617 80.6468 18.8681 81.3469 19.1007C82.0469 19.3321 82.9913 19.7097 83.447 19.9373C83.9027 20.1661 84.618 20.5831 85.038 20.8653C85.458 21.1488 86.2217 21.7845 86.7359 22.279C87.2502 22.7735 87.8662 23.4499 88.1042 23.7817C88.3435 24.1135 88.5815 24.3856 88.6337 24.3868C88.6859 24.3868 88.7724 23.8859 88.8246 23.2744C88.8768 22.6617 88.9914 21.3446 89.2383 18.535L99.739 18.5375L99.6982 39.4188C99.6601 58.1794 99.6346 60.4093 99.4462 61.3806C99.3317 61.9743 99.0847 63.004 98.8976 63.6689C98.7118 64.3338 98.2625 65.506 97.901 66.2751C97.5383 67.0443 96.9337 68.1312 96.5557 68.6906C96.1776 69.25 95.3796 70.2162 94.7814 70.8366C94.1832 71.4582 93.2629 72.2909 92.7385 72.6876C92.2128 73.0855 91.4402 73.6144 91.0202 73.8648C90.6002 74.1153 89.9129 74.4916 89.4928 74.7026C89.0728 74.9124 88.271 75.2671 87.7109 75.4895C87.1509 75.712 86.2345 76.0273 85.6744 76.19C85.1144 76.3528 83.6532 76.6579 82.4288 76.8689C81.1407 77.0901 79.4758 77.2834 78.483 77.3253C77.5386 77.366 76.0482 77.3469 75.1737 77.2834C74.298 77.2185 72.9527 77.0723 72.1826 76.9579C71.4126 76.8422 70.3523 76.6401 69.8279 76.5079C69.3023 76.3756 68.2713 76.0604 67.5369 75.8061C66.8025 75.5531 65.5131 75.0115 64.6731 74.6034C63.833 74.1941 62.7448 73.6169 62.2547 73.3207C61.7647 73.0232 60.9335 72.4664 60.4091 72.0812C59.8835 71.6972 58.948 70.8925 58.3294 70.2912C57.7095 69.6911 57.0795 69.0364 56.6544 68.4783L57.4333 67.6939C57.8623 67.2629 58.4847 66.5675 58.8181 66.148C59.1516 65.7284 60.0324 64.7559 62.1274 62.5883L62.9548 63.3956C63.4104 63.8406 64.2403 64.5436 64.8003 64.9593C65.3604 65.3763 66.3621 65.9954 67.0278 66.3374C67.6934 66.6781 68.9242 67.1892 69.7643 67.4714C70.6044 67.7536 71.8644 68.0715 72.5645 68.1783C73.2645 68.2838 74.5246 68.4071 75.3647 68.4503C76.2493 68.4974 77.3732 68.4719 78.0376 68.3893C78.6676 68.3117 79.5267 68.1579 79.9468 68.0486C80.3668 67.9393 81.3125 67.6113 82.0469 67.3214C82.9493 66.9667 83.6939 66.5612 84.338 66.0781C84.8624 65.6827 85.6133 65.0229 86.0041 64.6097C86.3961 64.1978 86.9358 63.5164 87.2031 63.0968C87.4704 62.6773 87.7987 62.0773 87.9324 61.762C88.066 61.4467 88.2862 60.7322 88.4211 60.1728C88.5561 59.6135 88.6973 58.5837 88.7355 57.8845C88.7737 57.1853 88.7584 56.1275 88.6019 54.4532L87.8382 55.4652C87.4182 56.022 86.6736 56.814 86.1835 57.2247C85.6044 57.7116 84.758 58.2316 83.7652 58.7108C82.9252 59.1177 81.6943 59.5982 81.0287 59.78C80.363 59.9605 79.2467 60.1919 78.5467 60.2936C77.8466 60.394 76.444 60.5364 75.4283 60.6102C74.1453 60.7017 73.136 60.7017 72.119 60.6089C71.3133 60.5364 70.0825 60.3623 69.3825 60.2211C68.6824 60.0813 67.5942 59.7953 66.9641 59.5842C66.3341 59.3745 65.3311 58.974 64.7367 58.6956C64.1423 58.4159 63.082 57.8057 62.382 57.3378C61.682 56.87 60.5708 55.9724 59.9128 55.3431C59.2547 54.7126 58.3179 53.6828 57.8317 53.0535C57.3455 52.4242 56.6391 51.3665 56.2636 50.7016C55.8869 50.0367 55.3574 48.951 55.0875 48.2861C54.8164 47.6212 54.4435 46.5355 54.2577 45.8706C54.0718 45.2057 53.8338 44.2052 53.7282 43.6459C53.6213 43.0865 53.4787 41.8851 53.4087 40.9761C53.326 39.893 53.326 38.7539 53.4074 37.6707C53.4761 36.7617 53.6505 35.4167 53.7956 34.6831C53.9407 33.9496 54.2895 32.6618 54.5695 31.8227C54.8495 30.9836 55.3268 29.7823 55.6297 29.153C55.9314 28.5237 56.5818 27.4075 57.0731 26.6739C57.5657 25.9404 58.2912 24.9665 58.687 24.5127C59.0816 24.0588 59.8466 23.296 60.385 22.8193C60.9234 22.3426 61.9072 21.5912 62.5729 21.1514C63.2386 20.7102 64.197 20.1419 64.7049 19.8889C65.2127 19.6347 66.2717 19.2063 67.0596 18.9367C67.8474 18.6672 68.8631 18.3799 69.3188 18.2985C69.7745 18.2172 70.5471 18.1015 71.0371 18.043C71.5271 17.9833 72.7299 17.9273 73.71 17.9171V17.9171ZM71.9917 28.1537C71.466 28.3571 70.5789 28.8059 70.0189 29.1517C69.4219 29.5204 68.5526 30.2348 67.9187 30.8756C67.295 31.5061 66.5797 32.3973 66.2297 32.977C65.8962 33.5313 65.424 34.556 65.1822 35.2552C64.9403 35.9544 64.6756 37.0122 64.5954 37.6071C64.5152 38.2021 64.4796 39.2891 64.5178 40.0226C64.556 40.7562 64.6832 41.758 64.8016 42.2474C64.9187 42.7369 65.1618 43.5378 65.34 44.0272C65.5182 44.5167 65.9001 45.3113 66.1877 45.7944C66.4741 46.2762 67.1385 47.128 67.6642 47.6873C68.1886 48.2454 68.9624 48.9472 69.3825 49.2447C69.8025 49.5434 70.5471 49.9871 71.0371 50.2325C71.5271 50.4766 72.4436 50.8389 73.0736 51.0385C74.1517 51.3779 74.3515 51.3996 76.4465 51.3996C78.3749 51.3983 78.8063 51.3601 79.6604 51.1135C80.2026 50.9571 81.0045 50.6787 81.4423 50.4957C81.8802 50.3139 82.6388 49.9045 83.1288 49.5879C83.6188 49.2714 84.2985 48.7768 84.6396 48.4895C84.9795 48.2035 85.6031 47.5386 86.0244 47.0148C86.4445 46.4898 86.9752 45.6888 87.2031 45.235C87.4296 44.7811 87.7656 43.9942 87.9489 43.4869C88.1335 42.9797 88.3779 42.0071 88.4924 41.3257C88.6401 40.4472 88.677 39.734 88.621 38.8785C88.5777 38.2136 88.4275 37.1279 88.2875 36.463C88.1335 35.732 87.8267 34.8293 87.5098 34.1746C87.2222 33.5796 86.811 32.8372 86.5959 32.5219C86.3821 32.2066 85.8857 31.6078 85.495 31.1883C85.1029 30.7701 84.3965 30.1268 83.9243 29.7581C83.4521 29.3907 82.6782 28.8949 82.206 28.6571C81.7338 28.4194 80.9752 28.1067 80.5195 27.9605C80.0639 27.8143 79.234 27.6083 78.674 27.5015C78.1139 27.396 77.083 27.3134 76.3829 27.3185C75.6778 27.3235 74.6277 27.4291 74.0282 27.5562C73.4338 27.6833 72.5161 27.9516 71.9917 28.1537V28.1537ZM108.267 18.5375L113.517 18.5401C116.405 18.5401 118.843 18.5833 118.935 18.6354C119.041 18.6926 119.146 19.1579 119.217 19.8724C119.279 20.5017 119.317 29.2826 119.274 57.7574L118.957 58.4922C118.773 58.9206 118.56 59.227 118.449 59.227C118.344 59.227 118.073 59.3401 117.845 59.4774C117.459 59.7114 117.431 59.7749 117.431 61.1263L109.094 61.1225L108.262 60.3L108.267 18.5375ZM148.096 18.5375H153.51C157.707 18.5375 158.946 18.5731 159.02 18.6965C159.074 18.7842 159.133 21.1717 159.155 24.0042C159.184 27.935 159.146 29.664 158.993 31.3142C158.83 33.0838 158.792 35.6404 158.783 45.4257C158.773 55.7233 158.745 57.4459 158.58 57.8845C158.475 58.1642 158.366 58.5786 158.339 58.8062C158.303 59.0973 158.223 59.2181 158.065 59.2168C157.918 59.2151 157.811 59.3528 157.746 59.63C157.693 59.8588 157.649 60.2885 157.652 61.1263H148.106L148.096 18.5375ZM243.662 18.5566C244.73 18.5464 246.162 18.596 246.844 18.6685C247.527 18.7397 248.802 18.9774 249.676 19.1961C250.552 19.4147 251.754 19.7885 252.349 20.0275C252.945 20.2652 253.746 20.6352 254.131 20.8501C254.516 21.0636 255.117 21.445 255.467 21.6955C255.817 21.9472 256.469 22.4977 256.916 22.9197C257.362 23.3418 257.949 23.9864 258.22 24.3538C258.491 24.7212 258.77 25.0212 258.84 25.0212C258.91 25.0212 258.967 24.7784 258.965 24.4809C258.964 24.1834 259.064 22.8676 259.413 19.1719L269.914 19.1732V61.762H264.631C261.727 61.762 259.348 61.748 259.345 61.7302C259.343 61.7124 259.259 60.525 259.157 59.0922C259.057 57.6595 258.973 56.3576 258.971 56.2C258.969 56.0424 258.925 55.9127 258.872 55.9114C258.82 55.9101 258.536 56.2674 258.243 56.706C257.949 57.1446 257.347 57.8667 256.907 58.3116C256.465 58.7553 255.703 59.3834 255.213 59.7075C254.723 60.0305 253.822 60.511 253.208 60.7742C252.596 61.0373 251.45 61.4225 250.662 61.6298C249.876 61.837 248.687 62.09 248.021 62.1942C247.357 62.2972 246.154 62.418 245.348 62.4637C244.544 62.5095 243.155 62.4841 242.262 62.4078C241.37 62.3328 240.196 62.179 239.653 62.0658C239.11 61.9539 238.237 61.72 237.712 61.5458C237.187 61.373 236.099 60.9178 235.293 60.5352C234.489 60.1525 233.286 59.4787 232.62 59.0376C231.956 58.5964 230.949 57.8133 230.383 57.2971C229.816 56.781 229.083 56.0436 228.754 55.6597C228.424 55.2758 227.831 54.4748 227.435 53.8799C227.039 53.2849 226.414 52.1979 226.046 51.4644C225.678 50.7308 225.121 49.3578 224.809 48.4133C224.497 47.4687 224.126 46.0957 223.983 45.3621C223.84 44.6286 223.657 43.2263 223.576 42.2474C223.465 40.9036 223.464 40.0315 223.574 38.6878C223.655 37.7088 223.858 36.2214 224.028 35.3824C224.197 34.5433 224.574 33.1703 224.863 32.3312C225.153 31.4922 225.676 30.2336 226.026 29.5343C226.375 28.8351 226.965 27.8054 227.338 27.246C227.71 26.6866 228.381 25.7992 228.829 25.2755C229.275 24.7504 230.126 23.9012 230.717 23.3876C231.309 22.874 232.28 22.1315 232.875 21.7374C233.471 21.3433 234.502 20.7534 235.166 20.4267C235.832 20.1013 236.833 19.6919 237.393 19.519C237.953 19.3448 238.984 19.0842 239.684 18.938C240.384 18.7918 241.129 18.6507 241.339 18.624C241.549 18.5973 242.595 18.5668 243.662 18.5566V18.5566ZM243.185 28.4461C242.66 28.6025 241.751 28.9686 241.165 29.2597C240.578 29.5509 239.637 30.1598 239.073 30.615C238.511 31.0688 237.715 31.8697 237.308 32.3948C236.899 32.9186 236.37 33.7195 236.131 34.1746C235.891 34.6285 235.58 35.3162 235.437 35.7002C235.294 36.0841 235.077 36.8278 234.955 37.3529C234.783 38.0852 234.731 38.853 234.732 40.6583C234.734 42.8754 234.755 43.0763 235.092 44.1544C235.288 44.7837 235.68 45.7562 235.961 46.3156C236.243 46.875 236.647 47.5894 236.861 47.9047C237.074 48.22 237.51 48.7857 237.831 49.1621C238.151 49.5396 238.813 50.16 239.303 50.5427C239.793 50.9241 240.537 51.4275 240.957 51.6614C241.377 51.8954 242.266 52.2729 242.93 52.5005C244.135 52.9137 244.148 52.9149 246.685 52.9175C249.003 52.92 249.306 52.8946 250.058 52.6327C250.513 52.4751 251 52.2946 251.14 52.2323C251.28 52.1687 251.767 51.9437 252.222 51.7314C252.677 51.5191 253.493 51.0143 254.034 50.6101C254.576 50.2058 255.02 49.832 255.02 49.7799C255.022 49.7278 255.257 49.4697 255.546 49.2078C255.834 48.9459 256.316 48.3586 256.619 47.9047C256.921 47.4496 257.368 46.6487 257.609 46.1249C257.852 45.5998 258.168 44.7417 258.312 44.2179C258.457 43.6929 258.64 42.6352 258.719 41.866C258.83 40.8019 258.829 40.1027 258.713 38.942C258.625 38.0635 258.43 37.0249 258.255 36.4948C258.087 35.9875 257.789 35.2158 257.592 34.7785C257.396 34.3412 256.984 33.6114 256.678 33.1576C256.371 32.7024 255.773 31.9676 255.349 31.5239C254.924 31.0803 254.118 30.4115 253.558 30.0391C252.998 29.6653 252.139 29.1898 251.649 28.9801C251.159 28.7716 250.3 28.4753 249.74 28.3228C249.004 28.1219 248.263 28.0342 247.067 28.0024C246.157 27.9795 245.126 28.005 244.776 28.0596C244.426 28.1143 243.71 28.2885 243.185 28.4461V28.4461Z" fill="white"/>
<path d="M162.877 19.6182L176.97 19.5533C184.721 19.5177 193.11 19.4758 195.613 19.458C198.115 19.4414 200.149 19.4745 200.131 19.5304C200.113 19.5876 197.723 22.3311 189.535 31.6193L175.407 31.6167L162.877 19.6182Z" fill="#EDB92B"/>
<path d="M195.706 26.2925C198.333 23.3215 200.765 20.5602 201.109 20.1585L201.736 19.4275H211.896C217.484 19.4275 222.055 19.4567 222.055 19.491C222.055 19.5266 220.069 21.7997 217.64 24.5445C215.212 27.2892 210.472 32.6478 207.108 36.4541C203.744 40.2604 200.107 44.3794 199.028 45.6075C197.948 46.8356 196.774 48.1679 195.772 49.2955L175.412 49.2396L176.993 47.4598L176.996 47.4558C177.864 46.4776 178.927 45.2788 179.359 44.79C179.721 44.3812 180.696 43.2762 181.69 42.149L182.276 41.4846C183.447 40.1561 184.762 38.6687 185.197 38.1792C185.633 37.6898 187.1 36.0307 188.458 34.4924C189.816 32.9542 193.077 29.2648 195.706 26.2925Z" fill="#EDB92B"/>
<path d="M196.789 49.8422C197.069 49.5155 200.751 45.3418 204.972 40.568L212.647 31.8863H213.449C214.183 31.8863 214.237 31.9041 214.1 32.1087C214.018 32.2308 210.318 36.4452 205.879 41.4732C201.44 46.5012 196.662 51.9144 195.262 53.501C193.861 55.0876 191.657 57.5921 188.007 61.7454L177.856 61.7544C172.273 61.7582 167.705 61.7327 167.705 61.6984C167.705 61.6641 169.459 59.6465 171.604 57.2171C173.747 54.7876 175.967 52.2704 177.569 50.4512L196.28 50.4359L196.789 49.8422Z" fill="#EDB92B"/>
<path d="M190.965 60.0635C191.788 59.1291 194.208 56.3844 196.342 53.9651L200.224 49.5638L214.098 49.5714L226.444 61.7594L189.469 61.762L190.965 60.0635Z" fill="#EDB92B"/>
<path fill-rule="evenodd" clip-rule="evenodd" d="M128.217 13.4523C128.234 19.2215 128.264 32.3299 128.281 42.5843C128.299 52.8387 128.27 61.2064 128.218 61.1772C128.166 61.1492 128.136 48.0395 128.153 32.0452C128.171 16.0509 128.199 7.68311 128.217 13.4523ZM93.5656 18.4676C95.9457 18.4676 96.8914 18.4841 95.6657 18.5057C94.44 18.5261 92.4939 18.5261 91.3382 18.5057C90.1825 18.4841 91.1854 18.4676 93.5656 18.4676ZM119.276 18.4714L108.267 18.5375L108.217 20.5081L108.169 19.6309C108.142 19.1478 108.151 18.6761 108.19 18.582C108.247 18.4409 109.244 18.4155 119.276 18.4714ZM157.333 18.4702L148.105 18.5375L148.043 61.317L148.01 40.0226C147.991 28.3101 148.004 18.657 148.038 18.5693C148.085 18.446 149.117 18.4168 157.333 18.4702ZM108.235 30.17C108.253 35.4841 108.253 44.209 108.235 49.5574C108.217 54.9071 108.202 50.5579 108.202 39.8955C108.202 29.2318 108.217 24.8559 108.235 30.17Z" fill="#313749" fill-opacity="0.25"/>
<path d="M135.187 2.86869C133.927 2.88903 131.894 2.88903 130.668 2.86869C129.443 2.84708 130.474 2.83055 132.959 2.83055C135.445 2.83055 136.447 2.84708 135.187 2.86869Z" fill="#323749" fill-opacity="0.19"/>
<path d="M99.3572 18.5032C99.1128 18.5299 98.6546 18.5299 98.3389 18.5032C98.0233 18.4765 98.2244 18.4549 98.7844 18.4536C99.3444 18.4536 99.6015 18.4753 99.3572 18.5032Z" fill="#323749" fill-opacity="0.19"/>
<path d="M158.797 18.5032C158.553 18.5299 158.094 18.5299 157.779 18.5032C157.465 18.4765 157.665 18.4549 158.225 18.4536C158.785 18.4536 159.042 18.4753 158.797 18.5032Z" fill="#323749" fill-opacity="0.19"/>
<path d="M108.232 60.7449C108.206 61.0602 108.184 60.8301 108.184 60.2364C108.184 59.6427 108.206 59.3846 108.232 59.6643C108.259 59.944 108.259 60.4296 108.232 60.7449Z" fill="#323749" fill-opacity="0.19"/>
<path d="M74.2188 17.8676C73.9388 17.8943 73.5379 17.8943 73.3279 17.8663C73.1179 17.8383 73.347 17.8154 73.837 17.8167C74.327 17.8167 74.4989 17.8396 74.2188 17.8676Z" fill="#323749" fill-opacity="0.73"/>
<path d="M269.977 61.8255L269.913 40.4422C269.878 28.6813 269.892 19.0982 269.944 19.1478C269.995 19.1961 270.023 28.8186 269.977 61.8255Z" fill="#323749" fill-opacity="0.73"/>
<path d="M88.7581 57.948C88.7301 58.1921 88.7085 57.9646 88.7085 57.4395C88.7085 56.9145 88.7301 56.7149 88.7581 56.9946C88.7849 57.2743 88.7849 57.704 88.7581 57.948Z" fill="#323749" fill-opacity="0.73"/>
<path d="M59.9634 64.7495L60.7869 63.8914C61.24 63.4198 61.6269 63.0333 61.646 63.0333C61.6651 63.0333 61.6817 63.0473 61.6829 63.0651C61.6829 63.0829 61.2973 63.4681 59.9634 64.7495Z" fill="#323749" fill-opacity="0.73"/>
<path d="M76.8281 68.4656C76.5837 68.4923 76.1242 68.4923 75.8099 68.4656C75.4942 68.4389 75.6953 68.4173 76.2553 68.416C76.8154 68.416 77.0725 68.4376 76.8281 68.4656Z" fill="#323749" fill-opacity="0.73"/>
<path d="M77.5282 77.4918C77.2481 77.5185 76.8472 77.5185 76.6372 77.4906C76.4272 77.4626 76.6563 77.4397 77.1463 77.441C77.6363 77.441 77.8082 77.4639 77.5282 77.4918Z" fill="#323749" fill-opacity="0.73"/>
<path d="M0.0445483 40.6583C0.020365 41.1834 0.00127281 40.8109 0 39.832C0 38.8531 0.020365 38.4246 0.0445483 38.8785C0.0687317 39.3323 0.0687317 40.1333 0.0445483 40.6583Z" fill="#313749" fill-opacity="0.84"/>
<path d="M128.441 61.1937L133.85 61.1263C136.826 61.0895 139.272 61.045 139.286 61.0285C139.301 61.0132 139.287 61.0564 139.254 61.1263C139.216 61.209 137.308 61.2433 128.441 61.1937Z" fill="#313749" fill-opacity="0.84"/>
<path d="M116.54 61.2217C115.105 61.242 112.7 61.242 111.194 61.2217C109.688 61.2014 110.863 61.1848 113.803 61.1848C116.743 61.1848 117.975 61.2014 116.54 61.2217Z" fill="#313749" fill-opacity="0.84"/>
<path d="M156.315 61.2217C154.845 61.242 152.382 61.242 150.842 61.2217C149.302 61.2014 150.505 61.1848 153.515 61.1848C156.525 61.1848 157.785 61.2014 156.315 61.2217Z" fill="#313749" fill-opacity="0.84"/>
<path d="M21.2063 61.8561C20.6819 61.8802 19.88 61.8802 19.4244 61.8561C18.97 61.8319 19.3989 61.8116 20.379 61.8116C21.359 61.8129 21.732 61.8319 21.2063 61.8561Z" fill="#313749" fill-opacity="0.84"/>
<path d="M44.1807 18.5058C42.9206 18.5261 40.9159 18.5261 39.7259 18.5058C38.5358 18.4841 39.5668 18.4676 42.0169 18.4676C44.4671 18.4676 45.4408 18.4841 44.1807 18.5058Z" fill="#313649" fill-opacity="0.6"/>
<path d="M267.304 19.1414C265.904 19.1618 263.556 19.1618 262.086 19.1414C260.616 19.1211 261.761 19.1045 264.631 19.1045C267.502 19.1045 268.704 19.1211 267.304 19.1414Z" fill="#313649" fill-opacity="0.6"/>
<path d="M58.8817 70.9179C58.8473 70.9179 58.4464 70.5454 57.9907 70.089C57.535 69.6326 57.2092 69.2614 57.2665 69.2614C57.3225 69.2627 57.7234 69.6352 58.1574 70.0903C58.5902 70.5454 58.916 70.9179 58.8817 70.9179Z" fill="#313649" fill-opacity="0.6"/>
<path d="M138.562 4.33449C138.459 4.00013 138.25 3.53738 138.098 3.30727L137.823 2.88774L139.259 2.96402V61.0627L138.368 61.1034C137.532 61.1403 137.471 61.125 137.383 60.8492C137.332 60.6864 137.289 60.4258 137.288 60.2682C137.288 60.1105 137.387 59.8092 137.509 59.5995C137.653 59.3516 137.832 59.2168 138.018 59.2181C138.246 59.2193 138.348 59.096 138.516 58.6155C138.707 58.0675 138.735 56.1504 138.819 37.925C138.88 24.6881 138.958 17.6209 139.047 17.2027C139.128 16.8136 139.183 14.3104 139.188 10.7508C139.196 5.29178 139.182 4.93455 138.973 4.93836C138.816 4.9409 138.694 4.76038 138.562 4.33449Z" fill="#323749" fill-opacity="0.99"/>
<path d="M119.196 19.7033C119.137 19.191 119.018 18.7193 118.929 18.657C118.813 18.5744 118.847 18.5413 119.053 18.5401C119.328 18.5375 119.338 18.5769 119.302 20.6352L119.196 19.7033Z" fill="#323749" fill-opacity="0.99"/>
<path d="M158.779 45.5528C158.785 37.0859 158.835 33.1881 158.952 31.8227C159.096 30.1407 159.119 31.7502 159.148 45.4257C159.166 53.9561 159.158 60.9928 159.132 61.0627C159.106 61.1327 158.761 61.1759 157.651 61.1263L157.65 60.586C157.649 60.2885 157.692 59.8588 157.745 59.63C157.81 59.3528 157.916 59.2151 158.065 59.2168C158.222 59.2181 158.302 59.0973 158.337 58.8062C158.365 58.5786 158.474 58.1642 158.579 57.8845C158.743 57.4459 158.771 55.7423 158.779 45.5528Z" fill="#323749" fill-opacity="0.99"/>
<path d="M118.926 58.5239C119.084 58.1375 119.225 57.5209 119.24 57.1535C119.257 56.7861 119.286 57.4866 119.307 58.7108C119.327 59.9338 119.322 60.9928 119.295 61.0627C119.266 61.1352 118.856 61.1759 117.431 61.1263V60.4271C117.431 59.7749 117.457 59.7113 117.844 59.4774C118.072 59.3401 118.343 59.227 118.449 59.227C118.561 59.227 118.757 58.9384 118.926 58.5239Z" fill="#323749" fill-opacity="0.99"/>
<path d="M44.8803 60.7131C45.1171 60.5758 45.3691 60.2478 45.5409 59.855C45.7802 59.3109 45.8719 59.2193 46.5312 59.2193L46.4713 61.1899L45.4849 61.2217C44.7632 61.2445 44.4985 61.2102 44.4985 61.0945C44.4998 61.0068 44.6716 60.8352 44.8803 60.7131Z" fill="#323749" fill-opacity="0.99"/>
<path d="M128.342 60.4271C128.314 60.7068 128.291 60.5352 128.291 60.0457C128.29 59.5562 128.313 59.3274 128.341 59.5372C128.369 59.7469 128.369 60.1474 128.342 60.4271Z" fill="#323749" fill-opacity="0.99"/>
<path d="M148.198 60.6178C148.17 60.8619 148.147 60.633 148.147 60.1093C148.147 59.5842 148.17 59.3846 148.198 59.6643C148.225 59.944 148.225 60.3724 148.198 60.6178Z" fill="#323749" fill-opacity="0.99"/>
<path d="M108.362 61.1695C108.31 61.1454 108.265 60.9407 108.264 60.7131L108.261 60.3L109.047 61.0627L108.751 61.1378C108.59 61.1797 108.414 61.1937 108.362 61.1695Z" fill="#323749" fill-opacity="0.99"/>
<path d="M36.3538 61.2255C36.0496 61.2013 35.8943 61.12 35.865 60.9674C35.8396 60.8428 35.8956 60.7462 35.991 60.7475C36.0839 60.7487 36.3041 60.8657 36.798 61.2611L36.3538 61.2255Z" fill="#323749" fill-opacity="0.99"/>
<path d="M114.439 13.0366C114.159 13.0633 113.644 13.0633 113.294 13.0379C112.944 13.0112 113.173 12.9896 113.803 12.9883C114.433 12.9883 114.719 13.0099 114.439 13.0366Z" fill="#313649" fill-opacity="0.48"/>
<path d="M154.278 13.0366C153.998 13.0633 153.483 13.0633 153.133 13.0379C152.783 13.0112 153.012 12.9896 153.642 12.9883C154.272 12.9883 154.558 13.0099 154.278 13.0366Z" fill="#313649" fill-opacity="0.48"/>
<path d="M37.1799 18.5032C36.8999 18.5299 36.4989 18.5299 36.2889 18.5019C36.0789 18.474 36.308 18.4511 36.798 18.4524C37.2881 18.4524 37.4599 18.4752 37.1799 18.5032Z" fill="#313649" fill-opacity="0.48"/>
<path d="M244.711 18.5045C244.326 18.5286 243.64 18.5299 243.184 18.5045C242.728 18.4803 243.044 18.4587 243.884 18.4587C244.724 18.4587 245.097 18.4791 244.711 18.5045Z" fill="#313649" fill-opacity="0.48"/>
<path d="M258.622 24.7733C258.837 24.9462 258.852 24.9131 258.869 24.2584L258.887 23.5592L258.929 24.2584C258.952 24.6424 258.939 24.9869 258.902 25.0212C258.864 25.0555 258.735 24.9729 258.614 24.8369C258.404 24.6017 258.404 24.5991 258.622 24.7733Z" fill="#313649" fill-opacity="0.48"/>
<path d="M264.641 61.8281C260.008 61.8255 259.299 61.8001 259.255 61.6348C259.216 61.5009 259.234 61.4891 259.307 61.5992C259.387 61.7162 260.715 61.7632 269.977 61.8293L264.641 61.8281Z" fill="#313649" fill-opacity="0.48"/>
<path d="M19.7427 17.8676C19.4627 17.8944 19.0338 17.8944 18.7881 17.8676C18.5425 17.8396 18.7716 17.818 19.2972 17.818C19.8229 17.818 20.0227 17.8396 19.7427 17.8676Z" fill="#313649" fill-opacity="0.36"/>
<path d="M22.1611 17.8676C21.881 17.8944 21.4521 17.8944 21.2065 17.8676C20.9608 17.8396 21.1899 17.818 21.7156 17.818C22.2413 17.818 22.4411 17.8396 22.1611 17.8676Z" fill="#313649" fill-opacity="0.36"/>
<path d="M217.855 19.3957C215.441 19.4147 211.517 19.4147 209.137 19.3957C206.757 19.3766 208.733 19.3601 213.528 19.3601C218.323 19.3601 220.27 19.3766 217.855 19.3957Z" fill="#D8B82B" fill-opacity="0.21"/>
<path d="M182.853 61.8573C180.017 61.8764 175.407 61.8764 172.607 61.8573C169.807 61.8383 172.126 61.823 177.762 61.823C183.398 61.823 185.689 61.8383 182.853 61.8573Z" fill="#D8B82B" fill-opacity="0.21"/>
<path d="M217.155 61.8573C212.045 61.8751 203.712 61.8751 198.636 61.8573C193.56 61.8395 197.741 61.8243 207.928 61.8243C218.114 61.8243 222.266 61.8395 217.155 61.8573Z" fill="#D8B82B" fill-opacity="0.21"/>
<path d="M204.661 49.5894C202.131 49.6072 200.086 49.5779 200.118 49.5257C200.149 49.4736 203.338 49.443 207.202 49.4596C211.066 49.4748 213.11 49.5041 211.746 49.5232C210.38 49.541 207.193 49.5716 204.661 49.5894Z" fill="#8C842C" fill-opacity="0.36"/>
<path d="M176.617 19.5215C175.952 19.5444 174.807 19.5444 174.071 19.5228C173.335 19.4999 173.88 19.4808 175.28 19.4808C176.68 19.4808 177.281 19.4999 176.617 19.5215Z" fill="#B4A22B" fill-opacity="0.65"/>
<path d="M190.554 49.3985C187.754 49.4176 183.2 49.4176 180.435 49.3985C177.671 49.3794 179.962 49.3642 185.526 49.3642C191.091 49.3642 193.354 49.3794 190.554 49.3985Z" fill="#B4A22B" fill-opacity="0.65"/>
<path d="M216.456 51.8483C216.42 51.8483 215.991 51.4466 215.501 50.9559C215.011 50.4651 214.656 50.0647 214.712 50.0647C214.768 50.0659 215.198 50.4664 215.666 50.9571C216.136 51.4466 216.491 51.8483 216.456 51.8483Z" fill="#B4A22B" fill-opacity="0.65"/>
<path d="M197.554 19.3944C196.994 19.4186 196.048 19.4186 195.454 19.3944C194.859 19.3715 195.316 19.3525 196.472 19.3525C197.627 19.3525 198.114 19.3715 197.554 19.3944Z" fill="#73752B" fill-opacity="0.2"/>
<path d="M224.346 59.602C224.311 59.602 223.452 58.7719 222.437 57.7574C221.423 56.7429 220.636 55.9127 220.691 55.914C220.744 55.914 221.603 56.7441 222.6 57.7574C223.595 58.7719 224.382 59.602 224.346 59.602Z" fill="#73752B" fill-opacity="0.2"/>
<path d="M189.153 19.5228C188.103 19.5432 186.328 19.5444 185.208 19.5228C184.087 19.5012 184.947 19.4847 187.117 19.4834C189.287 19.4834 190.203 19.5012 189.153 19.5228Z" fill="#C6B72B" fill-opacity="0.84"/>
<path d="M221.419 56.8052C221.383 56.8052 220.64 56.0894 219.764 55.2148C218.89 54.3401 218.218 53.6244 218.273 53.6244C218.327 53.6256 219.072 54.3414 219.927 55.216C220.783 56.0894 221.455 56.8052 221.419 56.8052Z" fill="#C6B72B" fill-opacity="0.84"/>
<path d="M172.098 19.5203C171.818 19.547 171.417 19.547 171.207 19.519C170.997 19.491 171.226 19.4681 171.716 19.4694C172.207 19.4694 172.378 19.4923 172.098 19.5203Z" fill="#998C2C" fill-opacity="0.59"/>
<path d="M182.981 31.7274C181.545 31.7477 179.254 31.7477 177.89 31.7274C176.525 31.707 177.699 31.6905 180.499 31.6905C183.299 31.6905 184.417 31.707 182.981 31.7274Z" fill="#998C2C" fill-opacity="0.59"/>
<path d="M169.17 19.5228C168.33 19.5444 166.984 19.5444 166.179 19.5228C165.373 19.4999 166.061 19.4821 167.706 19.4821C169.35 19.4821 170.01 19.4999 169.17 19.5228Z" fill="#C8B72B" fill-opacity="0.7"/>
<path d="M181.961 19.5228C181.226 19.5444 180.052 19.5444 179.352 19.5228C178.652 19.4999 179.253 19.4808 180.689 19.4808C182.124 19.4808 182.697 19.4999 181.961 19.5228Z" fill="#C8B72B" fill-opacity="0.7"/>
<path d="M188.58 31.7261C188.056 31.7502 187.138 31.7502 186.543 31.7261C185.949 31.7032 186.378 31.6841 187.498 31.6828C188.618 31.6828 189.106 31.7032 188.58 31.7261Z" fill="#C8B72B" fill-opacity="0.7"/>
<path d="M213.411 31.918C212.928 31.9358 212.558 31.9066 212.59 31.8545C212.622 31.8023 213.018 31.7591 213.47 31.7591C213.922 31.7591 214.319 31.8163 214.354 31.8862C214.39 31.9562 214.347 32.0566 214.26 32.1087C214.156 32.1714 214.135 32.1503 214.197 32.0452C214.269 31.9231 214.087 31.8939 213.411 31.918Z" fill="#C8B72B" fill-opacity="0.7"/>
<path d="M204.236 19.3944C203.851 19.4186 203.165 19.4198 202.709 19.3944C202.253 19.3702 202.569 19.3486 203.409 19.3486C204.249 19.3486 204.622 19.369 204.236 19.3944Z" fill="#B7B22B" fill-opacity="0.31"/>
<path d="M191.508 50.4156C188.884 50.4346 184.645 50.4346 182.089 50.4156C179.534 50.3965 181.682 50.38 186.862 50.38C192.043 50.38 194.134 50.3965 191.508 50.4156Z" fill="#B7B22B" fill-opacity="0.31"/>
<path d="M138.75 2.86614C138.47 2.89284 138.04 2.89284 137.795 2.86614C137.551 2.83817 137.779 2.81656 138.305 2.81656C138.83 2.81656 139.03 2.83817 138.75 2.86614Z" fill="#313649" fill-opacity="0.11"/>
<path d="M244.648 62.6176C244.368 62.6443 243.938 62.6443 243.693 62.6176C243.449 62.5896 243.677 62.568 244.202 62.568C244.728 62.568 244.928 62.5896 244.648 62.6176Z" fill="#313649" fill-opacity="0.11"/>
<path d="M77.0827 51.5572C76.8384 51.584 76.3802 51.584 76.0645 51.5572C75.7488 51.5305 75.9499 51.5089 76.51 51.5076C77.07 51.5076 77.3271 51.5292 77.0827 51.5572Z" fill="#313749" fill-opacity="0.25"/>
<path d="M35.4284 40.4676C35.403 40.8871 35.3826 40.6011 35.3813 39.8319C35.3813 39.0628 35.4017 38.7196 35.4284 39.0692C35.4539 39.4188 35.4539 40.0481 35.4284 40.4676Z" fill="#313749" fill-opacity="0.84"/>
</svg>
